HIERARCHY
ROOT Hips
{
  OFFSET -5.94999 91.1956 141.109
  CHANNELS 6 Xposition Yposition Zposition Zrotation Xrotation Yrotation
  JOINT Spine
  {
    OFFSET 0 11.8905 0
    CHANNELS 3 Zrotation Xrotation Yrotation
    JOINT Spine1
    {
      OFFSET 0 25.6574 0.127663
      CHANNELS 3 Zrotation Xrotation Yrotation
      JOINT HEad
      {
        OFFSET 0 8.73416 0.011341
        CHANNELS 3 Zrotation Xrotation Yrotation
        End Site
        {
          OFFSET -0.29 12.7742 2.51395
        }
      }
      JOINT LeftShoulder1
      {
        OFFSET 8.99 -0.362252 -0.22
        CHANNELS 3 Zrotation Xrotation Yrotation
        JOINT LeftArm
        {
          OFFSET 10.2827 -0.00338 0.322123
          CHANNELS 3 Zrotation Xrotation Yrotation
          JOINT LeftForeArm
          {
            OFFSET 32.7669 0.099144 -1.42434
            CHANNELS 3 Zrotation Xrotation Yrotation
            JOINT LeftHand
            {
              OFFSET 27.5643 0.085362 1.02216
              CHANNELS 3 Zrotation Xrotation Yrotation
              End Site
              {
                OFFSET 16.7443 -0.6 1.50291
              }
            }
          }
        }
      }
      JOINT RightShoulder
      {
        OFFSET -8.99 -0.362252 -0.22
        CHANNELS 3 Zrotation Xrotation Yrotation
        JOINT RightArm
        {
          OFFSET -10.2827 -0.00338 0.322123
          CHANNELS 3 Zrotation Xrotation Yrotation
          JOINT RightForeArm
          {
            OFFSET -32.8971 0.099144 -1.42434
            CHANNELS 3 Zrotation Xrotation Yrotation
            JOINT RightHand
            {
              OFFSET -27.4921 0.085362 1.02216
              CHANNELS 3 Zrotation Xrotation Yrotation
              End Site
              {
                OFFSET -16.6312 -0.6 1.50291
              }
            }
          }
        }
      }
    }
  }
  JOINT RightUpLeg
  {
    OFFSET -8.9458 -8.66707 0.101652
    CHANNELS 3 Zrotation Xrotation Yrotation
    JOINT RightLeg
    {
      OFFSET 0 -44.4227 1.3727
      CHANNELS 3 Zrotation Xrotation Yrotation
      JOINT RightFoot
      {
        OFFSET 0.253549 -42.0924 -1.46059
        CHANNELS 3 Zrotation Xrotation Yrotation
        JOINT RightToes
        {
          OFFSET 0.04 -4.41509 8.4991
          CHANNELS 3 Zrotation Xrotation Yrotation
          End Site
          {
            OFFSET -0.08 -0.137448 9.77979
          }
        }
      }
    }
  }
  JOINT LeftUpLeg
  {
    OFFSET 8.9458 -8.66707 0.101652
    CHANNELS 3 Zrotation Xrotation Yrotation
    JOINT LeftLeg
    {
      OFFSET 0 -44.4227 1.3727
      CHANNELS 3 Zrotation Xrotation Yrotation
      JOINT LeftFoot
      {
        OFFSET -0.253549 -42.0924 -1.46059
        CHANNELS 3 Zrotation Xrotation Yrotation
        JOINT LeftToes
        {
          OFFSET -0.04 -4.41509 8.4991
          CHANNELS 3 Zrotation Xrotation Yrotation
          End Site
          {
            OFFSET 0.08 -0.047448 9.77979
          }
        }
      }
    }
  }
}
MOTION
Frames:	12
Frame Time:	0.0166667
2.75117 90.1013 44.1824 -1.22 -4.42692 -35.4029 -1.48859 10.6539 -4.33962 -11.1646 22.1929 -7.58164 14.5289 -18.095 -17.9268 -3.18055e-015 -9.54166e-015 -3.18055e-015 -50.8881 0.423188 -101.241 29.4734 27.0194 -116.362 5.64597 10.7757 24.9181 13.1625 0.998887 3.5858 3.57237 -2.48801 30.509 -18.5171 -37.0568 34.2884 -10.4189 2.888 67.6464 -19.4066 -24.56 5.64906 1.19577 36.6895 -18.9784 19.2723 34.2669 -7.03258 -62.8187 -44.64 -13.9599 33.4692 -15.546 -5.66696 -6.12826 14.4321 3.39749 -14.6977 25.9599 4.15148 28.5381 -38.4034 3.77533 
2.35101 89.7448 41.3581 -2.13602 -5.00008 -32.9115 -1.67621 10.7426 -5.21337 -11.0918 22.2812 -9.14392 14.4163 -15.8876 -13.4054 3.18055e-015 -9.54166e-015 -6.36111e-015 -48.9504 3.36071 -104.585 31.3036 27.2816 -115.446 3.95371 10.5308 26.9348 15.325 1.13316 3.75164 4.21751 -1.9334 34.3464 -15.6613 -40.6849 41.0493 -8.2616 3.92236 72.8619 -19.3515 -24.4319 6.72286 4.00923 37.7533 -21.0069 20.9052 34.7908 -7.74502 -65.0372 -45.5428 -15.0585 35.5147 -15.4221 -6.80402 -9.30412 19.2731 9.13622 -9.52312 29.3748 2.8911 31.7844 -41.205 5.84133 
1.99166 89.3491 38.8279 -3.19589 -5.65353 -30.2113 -1.6105 10.737 -6.23944 -10.7589 22.1881 -11.0226 13.9119 -13.1973 -9.1059 -6.36111e-015 -3.18055e-015 -6.36111e-015 -47.4483 5.70656 -107.355 31.8645 28.7562 -113.654 2.89531 10.3408 27.8803 17.132 1.37147 4.50572 11.3558 -10.0957 34.049 -12.5211 -28.5632 56.2714 -11.9092 2.30195 64.1815 -19.548 -23.7385 6.68308 6.59812 38.3723 -22.0821 22.4314 34.7557 -8.32303 -66.6825 -46.3713 -15.6487 37.6694 -14.8498 -8.6097 -12.7938 23.9368 14.196 -5.09753 32.3439 1.57356 34.8003 -43.5018 7.91692 
1.73082 88.9919 36.5355 -4.17414 -6.3426 -27.6079 -1.45409 10.714 -7.19735 -10.3516 22.0431 -12.7412 13.1538 -10.6188 -5.5773 5.29669e-031 -9.54166e-015 3.18055e-015 -46.2186 7.48139 -109.964 31.9844 30.4813 -111.615 2.26515 10.211 27.8507 17.5589 1.73716 6.21203 24.1057 -30.6769 30.1083 -10.9072 -3.00779 79.2006 -15.6943 3.07102 44.7461 -19.7817 -22.6868 5.63331 8.20711 38.4036 -22.2172 23.5772 34.7773 -8.76808 -68.3109 -47.1842 -16.2331 39.6017 -13.8379 -10.5081 -16.0536 28.2593 18.2454 -1.84929 34.5899 0.459283 37.1393 -45.1151 9.58583 
1.63971 88.7607 34.4038 -4.93082 -6.98738 -25.4039 -1.34067 10.7596 -7.88576 -9.99303 21.9956 -13.9298 12.4372 -8.75914 -3.1219 -0 0 6.36111e-015 -45.0109 8.67624 -112.675 32.7484 31.6351 -110.222 1.66878 10.0846 27.3704 17.9579 1.96185 7.17132 34.9915 -56.1194 27.4882 -12.0594 21.6655 103.248 -11.9965 6.90937 25.6274 -19.9208 -21.6016 4.32583 9.04109 37.8357 -22.0349 23.946 34.8789 -8.93196 -69.2034 -47.6804 -16.487 41.0963 -12.3484 -12.1041 -18.7333 32.1486 21.4541 0.563221 36.1417 -0.452613 38.6877 -46.106 10.7194 
1.79501 88.7409 32.3552 -5.41187 -7.51308 -23.7566 -1.38666 10.8641 -8.25521 -9.77952 22.0418 -14.5416 11.964 -7.73602 -1.71794 0 0 -3.18055e-015 -43.7664 9.2661 -115.185 34.7305 31.8359 -110.117 0.872506 9.92415 27.0054 19.193 1.87607 6.3036 36.7158 -67.6323 24.2633 -13.8649 29.2927 119.313 -0.637329 9.91079 8.60256 -19.9365 -20.7227 3.45037 9.5441 36.6226 -22.041 23.3595 34.8771 -8.70502 -68.1651 -47.5062 -15.6844 42.043 -10.3747 -13.3681 -20.8346 35.4401 24.3374 2.78412 37.0821 -1.33772 39.4766 -46.5489 11.3661 
2.27278 88.9968 30.3303 -5.61419 -7.88274 -22.6453 -1.67787 10.9189 -8.37411 -9.78186 22.0072 -14.7536 11.7393 -7.11492 -1.1653 -1.76556e-031 -3.18055e-015 -3.18055e-015 -42.6613 9.42221 -116.819 37.6793 31.0579 -111.258 -0.172827 9.71689 27.0733 21.1083 1.40183 3.65139 33.9186 -68.5686 20.8288 -15.1113 27.7781 128.726 13.7667 9.67629 -6.10983 -19.8557 -20.0976 3.21562 9.75173 34.6891 -22.0811 22.2934 34.6666 -8.25237 -64.4134 -46.4538 -13.2301 42.349 -8.01528 -14.4252 -22.4953 37.9986 27.3667 5.26417 37.542 -2.34036 39.5979 -46.5152 11.6209 
3.13791 89.5421 28.2934 -5.56604 -8.07648 -21.9666 -2.29734 10.8008 -8.3004 -9.99339 21.6937 -14.7463 11.6679 -6.32763 -1.27204 -6.36111e-015 -3.18055e-015 -0 -41.9196 9.54111 -117.055 40.8064 29.5073 -113.058 -1.43199 9.45626 27.6237 23.2642 0.561363 -0.116685 32.0803 -65.9861 19.3225 -16.7919 24.4208 135.352 26.3487 7.22457 -15.5222 -19.7183 -19.6618 3.43541 9.37631 32.0025 -21.5363 21.6468 34.1692 -7.90947 -57.802 -44.2904 -8.96422 41.9585 -5.43595 -15.2775 -23.7488 39.8108 30.7141 8.06902 37.7872 -3.4798 39.3293 -46.2363 11.6026 
4.36284 90.3615 26.2359 -5.35042 -8.03084 -21.5737 -3.04279 10.4834 -8.15388 -10.2472 21.0648 -14.6762 11.6868 -5.13137 -1.7932 3.18055e-015 -3.18055e-015 -0 -41.6788 9.86721 -115.762 43.2529 27.5875 -114.799 -2.74508 9.16199 28.4806 25.2256 -0.38783 -3.74708 29.6639 -59.8176 17.1628 -18.1499 19.3488 139.058 34.6252 4.90239 -20.0313 -19.492 -19.2906 3.76074 8.20931 28.5392 -19.928 22.018 33.237 -7.86778 -48.8241 -40.5537 -3.46028 41.0107 -2.7716 -15.8093 -24.504 40.779 34.1407 10.995 38.1383 -4.6963 39.0337 -46.0357 11.4161 
5.90698 91.3405 24.1745 -5.05579 -7.64719 -21.326 -3.74175 10.0424 -8.04224 -10.3319 20.2512 -14.7017 11.7968 -3.71866 -2.40166 -3.18055e-015 6.36111e-015 3.18055e-015 -42.0113 10.2931 -113.154 44.4286 25.8371 -115.979 -3.77909 8.90795 29.3432 26.737 -1.15635 -6.35255 27.796 -51.6568 15.0822 -18.9115 14.4524 140.039 38.3115 3.67762 -21.8513 -19.2154 -18.9806 3.80918 6.38388 24.4413 -17.1711 23.4318 31.6179 -8.05516 -38.5929 -34.8123 1.94342 39.7588 -0.27177 -15.927 -24.8621 40.9864 37.2392 13.6662 38.6063 -5.84793 38.874 -46.0613 11.1056 
7.70461 92.3074 22.1181 -4.75886 -6.84974 -21.1031 -4.22914 9.57279 -8.02298 -10.0956 19.4012 -14.8634 12.0154 -2.46 -2.9041 -1.76556e-031 -3.18055e-015 -3.18055e-015 -42.9802 10.6168 -109.666 44.0843 24.7626 -116.46 -4.16527 8.7968 29.936 27.742 -1.66168 -7.92293 27.3088 -44.2308 13.9761 -19.077 11.9412 139.124 38.3496 3.51061 -22.292 -18.9846 -18.8283 3.32361 4.35872 20.01 -13.6067 25.4102 29.1676 -8.2117 -28.5936 -27.3952 5.72146 38.4913 1.81232 -15.6564 -25.0734 40.561 39.5335 15.6172 39.0922 -6.72933 38.7655 -46.2546 10.6214 
9.67856 93.0854 20.051 -4.51825 -5.6708 -20.8412 -4.41846 9.1372 -8.06084 -9.52374 18.597 -15.0215 12.35 -1.65662 -3.34496 6.36111e-015 -9.54166e-015 -3.18055e-015 -44.6043 10.7347 -105.815 42.2159 24.651 -116.348 -3.73139 8.88799 30.0962 28.2346 -1.93129 -8.72827 27.739 -39.1309 13.458 -18.6268 12.1313 137.26 36.0637 4.07826 -21.8133 -18.9126 -18.9642 2.34171 2.72916 15.7212 -9.83198 27.2654 26.2263 -8.1311 -20.3777 -19.9911 7.15762 37.4203 3.38769 -15.1248 -25.3258 39.6134 40.6443 16.49 39.6706 -7.18872 38.5661 -46.537 9.84704 
